<svg xmlns="http://www.w3.org/2000/svg" width="24" height="24" viewBox="0 0 24 24" fill="none">
<title></title><path d="M22.4048 15.3164L20.6455 14.5913C20.3697 14.4733 20.1047 14.3315 19.8535 14.1677C21.3664 12.3669 22.2392 10.1151 22.335 7.76514C22.335 4.28514 19.9688 1.75928 16.7085 1.75928C14.4658 1.75928 12.7315 3.39258 11.8521 4.43555C10.9731 3.39255 9.23877 1.75928 6.99561 1.75928C3.73535 1.75928 1.36914 4.28516 1.36914 7.76514C1.36914 14.9775 11.0293 20.4536 11.4404 20.6831C11.5522 20.7456 11.6781 20.7784 11.8062 20.7783C12.7281 20.3912 13.5941 19.8824 14.3809 19.2653C14.6098 19.5816 14.8023 19.9228 14.9546 20.2823L15.6797 22.042C15.7363 22.1794 15.8324 22.2969 15.9558 22.3796C16.0793 22.4622 16.2245 22.5064 16.3731 22.5064C16.5216 22.5064 16.6668 22.4622 16.7903 22.3796C16.9137 22.2969 17.0098 22.1794 17.0664 22.042L17.791 20.2823C18.3275 18.9908 19.3539 17.9645 20.6455 17.4283L22.4048 16.7032C22.5422 16.6466 22.6597 16.5505 22.7423 16.427C22.825 16.3036 22.8691 16.1584 22.8691 16.0098C22.8691 15.8612 22.825 15.716 22.7423 15.5926C22.6597 15.4691 22.5422 15.373 22.4048 15.3164L22.4048 15.3164ZM2.8691 7.76514C2.8691 5.1123 4.56588 3.25928 6.99557 3.25928C9.39057 3.25928 11.2011 6.05518 11.2187 6.0835C11.2866 6.18976 11.3802 6.27724 11.4908 6.3379C11.6014 6.39856 11.7254 6.43046 11.8515 6.43066H11.853C11.9793 6.43056 12.1035 6.39855 12.2141 6.3376C12.3248 6.27665 12.4182 6.18874 12.4858 6.08203C12.5038 6.0542 14.3002 3.25928 16.7084 3.25928C19.1381 3.25928 20.8349 5.11228 20.8349 7.76514C20.7405 9.75439 19.9975 11.658 18.7195 13.1854C18.3321 12.7573 18.0183 12.268 17.791 11.7373L17.0663 9.97754C17.0098 9.84015 16.9137 9.72267 16.7902 9.64C16.6668 9.55732 16.5216 9.51318 16.373 9.51318C16.2244 9.51318 16.0792 9.55732 15.9557 9.64C15.8323 9.72267 15.7362 9.84015 15.6796 9.97754L14.9545 11.7373C14.4183 13.029 13.3918 14.0553 12.1 14.5913L10.3408 15.3164C10.2034 15.373 10.0859 15.4691 10.0032 15.5925C9.92054 15.716 9.8764 15.8612 9.8764 16.0098C9.8764 16.1583 9.92054 16.3035 10.0032 16.427C10.0859 16.5504 10.2034 16.6465 10.3408 16.7031L12.1 17.4282C12.5414 17.6188 12.9542 17.8698 13.3265 18.1739C12.6745 18.626 12.1383 18.9615 11.8095 19.1587C10.0927 18.1118 2.8691 13.3726 2.8691 7.76514ZM20.0742 16.0415C18.4135 16.7308 17.0938 18.0504 16.4043 19.7109L16.373 19.7871L16.3413 19.7109C15.652 18.0502 14.3322 16.7305 12.6714 16.0415L12.5947 16.0098L12.6714 15.978C14.3322 15.289 15.652 13.9694 16.3413 12.3086L16.373 12.2324L16.4043 12.3086C17.0938 13.9692 18.4135 15.2887 20.0742 15.978L20.1508 16.0097L20.0742 16.0415Z" fill="#2D2E2F"/>
</svg>
