<svg xmlns="http://www.w3.org/2000/svg" width="24" height="24" viewBox="0 0 24 24" fill="none">
<title></title><path d="M22.4419 10.1855C22.0925 9.72716 21.5878 9.41207 21.0226 9.29942C20.4573 9.18676 19.8704 9.2843 19.372 9.57371L18.9077 9.77971L19.851 5.80028C19.9371 5.47806 19.952 5.14094 19.8945 4.8124C19.8371 4.48386 19.7087 4.17179 19.5183 3.89793C19.3279 3.62407 19.0801 3.395 18.7922 3.22668C18.5042 3.05835 18.1831 2.95482 17.851 2.92328C17.6518 2.90328 17.4508 2.91134 17.2539 2.94721C17.1956 2.42306 16.9585 1.93497 16.5826 1.56504C16.2067 1.19511 15.7149 0.965911 15.1899 0.915984C14.6731 0.878426 14.1584 1.01244 13.7255 1.29724C13.2927 1.58205 12.9659 2.00172 12.7959 2.49117C12.4673 2.25849 12.0838 2.11546 11.6831 2.07617C11.1308 2.03635 10.5822 2.19218 10.1333 2.51635C9.68435 2.84051 9.36386 3.31233 9.22796 3.8491L8.49087 6.61027C8.48623 6.61088 8.48165 6.61021 8.47701 6.61082C7.95383 6.67758 7.46958 6.9224 7.10563 7.30412C6.74169 7.68585 6.52023 8.18122 6.47848 8.70698C6.28049 8.67743 6.07935 8.67546 5.88082 8.70112C5.55 8.74331 5.23234 8.85707 4.94994 9.03447C4.66754 9.21187 4.42718 9.44866 4.24557 9.72837C4.06396 10.0081 3.94547 10.324 3.89833 10.6542C3.85119 10.9843 3.87654 11.3208 3.97262 11.6401L5.16796 15.6089L4.51366 15.3764C4.00764 15.1329 3.43278 15.0724 2.88718 15.2055C2.34158 15.3385 1.85906 15.6568 1.52196 16.1059C1.35487 16.3572 1.239 16.639 1.18098 16.9352C1.12297 17.2313 1.12394 17.536 1.18386 17.8318C1.24377 18.1276 1.36145 18.4086 1.53014 18.6588C1.69884 18.909 1.91524 19.1235 2.16696 19.29C2.16696 19.29 3.85349 20.3886 5.69626 21.5659C7.25808 22.5651 9.07357 23.0958 10.9277 23.0952C11.6899 23.0967 12.4444 22.944 13.146 22.6463C13.8476 22.3486 14.4817 21.912 15.0102 21.3628C15.5386 20.8136 15.9505 20.1631 16.221 19.4506C16.4915 18.738 16.615 17.9781 16.5841 17.2166C18.5423 16.1528 20.3567 14.8435 21.9834 13.3203C22.4442 12.9541 22.7481 12.4261 22.8333 11.8437C22.9185 11.2613 22.7785 10.6683 22.4419 10.1855ZM14.186 20.0298C13.7958 20.5192 13.3001 20.9141 12.7359 21.1852C12.1717 21.4563 11.5536 21.5964 10.9276 21.5952C9.3598 21.5957 7.82462 21.147 6.50383 20.3022C4.67033 19.1303 2.99162 18.0371 2.99162 18.0371C2.81839 17.9227 2.69707 17.7449 2.65385 17.5419C2.61063 17.3389 2.64898 17.127 2.76062 16.9521C2.97693 16.6425 3.17662 16.5277 4.03748 16.7982L6.06238 17.5189C6.19306 17.5655 6.33409 17.5749 6.46979 17.546C6.60548 17.5172 6.73053 17.4513 6.83102 17.3557C6.93151 17.2601 7.0035 17.1384 7.039 17.0043C7.07451 16.8702 7.07212 16.7289 7.03211 16.5961L5.40914 11.2075C5.37577 11.0963 5.36713 10.9792 5.38383 10.8643C5.40053 10.7494 5.44217 10.6395 5.50582 10.5424C5.56947 10.4453 5.65359 10.3633 5.75229 10.3022C5.85098 10.2411 5.96186 10.2023 6.07714 10.1885C6.27312 10.1776 6.4669 10.2343 6.62609 10.3491C6.78527 10.4639 6.9002 10.6299 6.95165 10.8194L7.72948 13.4029C7.75735 13.4978 7.80373 13.5863 7.86595 13.6632C7.92817 13.7402 8.005 13.804 8.09201 13.8512C8.17902 13.8983 8.27449 13.9277 8.37293 13.9378C8.47137 13.9479 8.57083 13.9384 8.66557 13.9098C8.76032 13.8813 8.84848 13.8343 8.92499 13.7715C9.00149 13.7088 9.06482 13.6315 9.11133 13.5442C9.15785 13.4568 9.18662 13.3611 9.19599 13.2626C9.20537 13.1641 9.19516 13.0647 9.16596 12.9702L8.39058 10.396L8.38668 10.3833L8.00533 9.11717C7.97187 9.00597 7.96317 8.8888 7.97983 8.77387C7.99649 8.65895 8.03812 8.54907 8.10178 8.45195C8.16545 8.35483 8.24961 8.27284 8.34835 8.21172C8.44709 8.1506 8.55801 8.11184 8.67333 8.09817C8.87072 8.08796 9.06561 8.14596 9.2253 8.26243C9.38498 8.3789 9.49975 8.54675 9.55033 8.73782L10.9693 13.4478C10.9977 13.5421 11.0444 13.63 11.1067 13.7062C11.1691 13.7825 11.2458 13.8457 11.3326 13.8924C11.4194 13.939 11.5145 13.968 11.6125 13.9779C11.7105 13.9877 11.8095 13.9782 11.9038 13.9498C11.9982 13.9214 12.086 13.8747 12.1622 13.8123C12.2385 13.75 12.3018 13.6732 12.3484 13.5865C12.395 13.4997 12.424 13.4046 12.4339 13.3065C12.4438 13.2085 12.4342 13.1095 12.4058 13.0152L11.5474 10.1651C11.5139 10.054 11.5052 9.93686 11.5218 9.82198C11.5384 9.70711 11.58 9.59727 11.6436 9.50019C11.7072 9.4031 11.7914 9.32113 11.89 9.26004C11.9887 9.19895 12.0996 9.16021 12.2149 9.14655C12.4189 9.13652 12.6198 9.19874 12.7825 9.32225C12.9451 9.44577 13.059 9.62267 13.104 9.82185C13.8581 12.0293 14.4904 14.2765 14.9981 16.5533C15.1332 17.1565 15.1303 17.7825 14.9897 18.3844C14.849 18.9864 14.5743 19.5488 14.186 20.0298ZM20.959 12.2246C19.5439 13.5335 17.9935 14.688 16.3339 15.6684C15.8415 13.5336 15.239 11.4256 14.5288 9.35298C14.3761 8.82069 14.0408 8.35917 13.5818 8.04943C13.1227 7.73969 12.5693 7.6015 12.0185 7.65913C11.6191 7.71141 11.2401 7.86672 10.9189 8.10981C10.7281 7.63009 10.39 7.22331 9.95321 6.94807L10.6772 4.23628C10.7221 4.0437 10.8316 3.87233 10.9876 3.75076C11.1435 3.62919 11.3364 3.56478 11.5341 3.56828C11.7405 3.58683 11.9316 3.68474 12.0672 3.8414C12.2029 3.99805 12.2724 4.20123 12.2612 4.40812L11.9262 5.62297C11.8735 5.81389 11.8985 6.01789 11.9957 6.19045C12.0929 6.36302 12.2544 6.49014 12.4449 6.5441C12.6355 6.59806 12.8396 6.57446 13.0128 6.47846C13.1861 6.38246 13.3143 6.22185 13.3695 6.03166L13.683 4.95304C13.7048 4.87187 13.7221 4.78955 13.7348 4.70646L14.184 3.0756C14.2281 2.88266 14.3375 2.71086 14.4936 2.58925C14.6497 2.46764 14.8431 2.40368 15.041 2.40818C15.1561 2.41817 15.2677 2.45313 15.368 2.51063C15.4682 2.56813 15.5548 2.64679 15.6216 2.74113C15.6884 2.83547 15.7338 2.94323 15.7547 3.05691C15.7756 3.17059 15.7715 3.28747 15.7426 3.39939L14.7607 6.95066C14.7078 7.14201 14.7329 7.34652 14.8306 7.51936C14.9283 7.69219 15.0905 7.81923 15.2817 7.87262C15.4729 7.92602 15.6775 7.9014 15.8506 7.80418C16.0237 7.70695 16.1511 7.54505 16.205 7.35398L16.8451 5.08348C16.8887 4.89024 16.998 4.71807 17.1542 4.59628C17.3104 4.47448 17.504 4.4106 17.7021 4.41548C17.8186 4.42559 17.9314 4.46129 18.0326 4.52004C18.1337 4.57878 18.2206 4.65912 18.2871 4.75532C18.3541 4.85334 18.3987 4.96496 18.4176 5.0822C18.4365 5.19945 18.4293 5.31942 18.3965 5.43354L17.1847 10.5441L16.7417 10.7407C16.5599 10.8214 16.4175 10.971 16.346 11.1566C16.2745 11.3422 16.2796 11.5486 16.3603 11.7304C16.441 11.9122 16.5906 12.0546 16.7762 12.1261C16.9618 12.1976 17.1682 12.1925 17.3501 12.1118L20.0181 10.9267C20.2018 10.8038 20.4228 10.7494 20.6425 10.773C20.8623 10.7966 21.0667 10.8966 21.2202 11.0556C21.3327 11.2473 21.3684 11.4746 21.3199 11.6916C21.2714 11.9085 21.1424 12.099 20.959 12.2246Z" fill="#2D2E2F"/>
</svg>
