<svg xmlns="http://www.w3.org/2000/svg" width="24" height="24" viewBox="0 0 24 24" fill="none">
<title></title><path d="M7.48871 8.32318C7.44568 8.32322 7.40272 8.31963 7.36029 8.31244C7.16431 8.27849 6.98981 8.16815 6.8751 8.00565C6.76039 7.84316 6.71485 7.64178 6.74848 7.44574C6.92998 6.46014 7.40053 5.5508 8.10029 4.83339C8.80005 4.11598 9.69739 3.62292 10.6782 3.41694C10.7749 3.39809 10.8743 3.39847 10.9709 3.41805C11.0674 3.43764 11.1592 3.47605 11.2409 3.5311C11.3226 3.58614 11.3926 3.65674 11.4471 3.73886C11.5015 3.82098 11.5392 3.91302 11.558 4.00971C11.5769 4.10641 11.5765 4.20587 11.5569 4.30242C11.5373 4.39897 11.4989 4.49072 11.4439 4.57242C11.3888 4.65413 11.3182 4.72419 11.2361 4.77861C11.154 4.83303 11.062 4.87075 10.9653 4.8896C10.2814 5.03351 9.65585 5.37766 9.16821 5.87825C8.68058 6.37883 8.35293 7.0132 8.22699 7.7006C8.19684 7.87465 8.10628 8.03249 7.97125 8.14636C7.83622 8.26023 7.66535 8.32284 7.48871 8.32318Z" fill="#2D2E2F"/>
<path d="M16.9927 14.9409C17.9002 14.2026 18.6324 13.2719 19.1363 12.2161C19.6402 11.1602 19.9032 10.0056 19.9062 8.83574C19.9093 7.66583 19.6524 6.50986 19.1541 5.45137C18.6558 4.39289 17.9286 3.45835 17.0249 2.71531C16.1145 1.96862 15.0497 1.43341 13.9073 1.14833C12.7649 0.863261 11.5735 0.835435 10.419 1.06687C8.95214 1.36506 7.60014 2.07378 6.5204 3.1105C5.44066 4.14722 4.6776 5.46931 4.32005 6.92285C3.9625 8.37639 4.02516 9.9016 4.50074 11.3209C4.97633 12.7402 5.84527 13.9953 7.00641 14.9399C7.13948 15.0473 7.24689 15.183 7.3208 15.3372C7.39472 15.4913 7.43327 15.6601 7.43365 15.831V17.2145C7.26797 17.2477 7.11893 17.3374 7.01184 17.4681C6.90476 17.5988 6.84625 17.7626 6.84625 17.9316C6.84625 18.1006 6.90476 18.2644 7.01184 18.3951C7.11893 18.5259 7.26797 18.6155 7.43365 18.6488V18.9643C7.43568 19.618 7.67899 20.248 8.11693 20.7333C8.55487 21.2187 9.15659 21.5252 9.80665 21.5942C9.9995 22.0137 10.3086 22.3692 10.6974 22.6184C11.0862 22.8676 11.5383 23 12.0001 23C12.4619 23 12.9139 22.8676 13.3027 22.6184C13.6915 22.3692 14.0006 22.0137 14.1935 21.5942C14.8436 21.5252 15.4453 21.2187 15.8832 20.7333C16.3212 20.248 16.5645 19.618 16.5665 18.9643V18.6488C16.7322 18.6155 16.8812 18.5259 16.9883 18.3951C17.0954 18.2644 17.1539 18.1006 17.1539 17.9316C17.1539 17.7626 17.0954 17.5988 16.9883 17.4681C16.8812 17.3374 16.7322 17.2477 16.5665 17.2145V15.8305C16.5668 15.6599 16.6052 15.4914 16.679 15.3375C16.7527 15.1836 16.8599 15.0481 16.9927 14.9409ZM5.69386 7.67137C5.91487 6.41059 6.51164 5.24601 7.40595 4.33026C8.30027 3.41451 9.4504 2.79033 10.7056 2.53953C11.1266 2.45729 11.5545 2.41576 11.9834 2.41553C13.307 2.41055 14.5996 2.81616 15.6831 3.57648C16.7665 4.3368 17.5876 5.41441 18.033 6.66083C18.4784 7.90725 18.5264 9.26113 18.1702 10.5359C17.8141 11.8108 17.0714 12.9437 16.0444 13.7788C15.7213 14.0442 15.4655 14.3824 15.2981 14.7656H8.70161C8.53397 14.3821 8.27801 14.0436 7.95461 13.7778C7.06388 13.057 6.38383 12.1095 5.986 11.0349C5.58817 9.96036 5.48725 8.79844 5.69386 7.67137ZM8.9336 16.2656H15.0664V17.1816H8.9336V16.2656ZM13.9082 20.123H10.0918C9.78469 20.1226 9.49028 20.0003 9.27316 19.7831C9.05603 19.5659 8.93392 19.2715 8.9336 18.9643V18.6816H15.0664V18.9643C15.0661 19.2715 14.944 19.5659 14.7269 19.7831C14.5097 20.0003 14.2153 20.1226 13.9082 20.123Z" fill="#2D2E2F"/>
</svg>
