<svg xmlns="http://www.w3.org/2000/svg" width="24" height="24" viewBox="0 0 24 24" fill="none">
<title></title><path d="M22.9825 8.43359C22.9825 5.31201 19.462 1.40381 19.3116 1.23926C19.2395 1.16509 19.1533 1.10614 19.058 1.06588C18.9627 1.02562 18.8603 1.00488 18.7569 1.00488C18.6535 1.00488 18.5511 1.02562 18.4558 1.06588C18.3605 1.10614 18.2743 1.16509 18.2022 1.23926C17.4559 2.08529 16.7783 2.98952 16.1758 3.94336C14.2353 2.84784 11.9879 2.42219 9.78112 2.73221C7.57437 3.04224 5.53123 4.07068 3.96767 5.6585C2.40411 7.24631 1.40723 9.30503 1.1312 11.5163C0.855163 13.7276 1.31536 15.9682 2.44061 17.8916C3.56586 19.8151 5.29347 21.3142 7.35629 22.1572C9.41911 23.0002 11.7022 23.1401 13.8525 22.5552C16.0028 21.9704 17.9005 20.6934 19.2522 18.9217C20.6039 17.15 21.3341 14.9823 21.3301 12.7539C21.3301 12.5111 21.3122 12.2729 21.2955 12.0344C21.8183 11.5901 22.2395 11.0387 22.5306 10.4174C22.8216 9.79616 22.9757 9.11961 22.9825 8.43359ZM11.1739 21.4106C9.8453 21.4171 8.53304 21.1177 7.33875 20.5356C6.14445 19.9535 5.10017 19.1043 4.28679 18.0538C3.4734 17.0033 2.91274 15.7796 2.64822 14.4776C2.38371 13.1756 2.42244 11.8302 2.76141 10.5456C3.10038 9.26092 3.7305 8.07155 4.60297 7.06955C5.47544 6.06756 6.56684 5.27983 7.79264 4.76739C9.01844 4.25494 10.3457 4.03152 11.6718 4.11444C12.9978 4.19735 14.2869 4.58438 15.4393 5.24554C14.9006 6.22635 14.5902 7.31612 14.5313 8.43359C14.5131 9.59583 14.941 10.7209 15.727 11.5772C16.513 12.4335 17.5974 12.956 18.7569 13.0371C19.1201 13.0304 19.4802 12.9689 19.825 12.8547C19.7968 15.1316 18.8733 17.3058 17.2543 18.907C15.6353 20.5082 13.451 21.4076 11.1739 21.4106ZM18.7569 11.5371C17.2217 11.5371 16.0313 9.86865 16.0313 8.43359C16.0313 6.67285 17.6807 4.24268 18.7569 2.90234C19.8331 4.24072 21.4825 6.669 21.4825 8.43359C21.4825 9.86865 20.2921 11.5371 18.7569 11.5371H18.7569Z" fill="#2D2E2F"/>
<path d="M8.96214 19.2102C10.2265 19.2102 11.2514 18.1299 11.2514 16.7974C11.2514 15.4649 10.2265 14.3846 8.96214 14.3846C7.6978 14.3846 6.67285 15.4649 6.67285 16.7974C6.67285 18.1299 7.6978 19.2102 8.96214 19.2102Z" fill="#2D2E2F"/>
<path d="M12.4067 13.2055C13.0529 13.2055 13.5767 12.6817 13.5767 12.0354C13.5767 11.3892 13.0529 10.8654 12.4067 10.8654C11.7604 10.8654 11.2366 11.3892 11.2366 12.0354C11.2366 12.6817 11.7604 13.2055 12.4067 13.2055Z" fill="#2D2E2F"/>
<path d="M5.51774 13.2055C6.16395 13.2055 6.68782 12.6817 6.68782 12.0354C6.68782 11.3892 6.16395 10.8654 5.51774 10.8654C4.87152 10.8654 4.34766 11.3892 4.34766 12.0354C4.34766 12.6817 4.87152 13.2055 5.51774 13.2055Z" fill="#2D2E2F"/>
</svg>
